<svg width="87" height="88" viewBox="0 0 87 88" fill="none" xmlns="http://www.w3.org/2000/svg">
<path d="M11.5234 75.1904C11.0579 75.1904 10.8252 75.0339 10.8252 74.7207C10.8252 74.4753 10.9775 74.3525 11.2822 74.3525L11.9043 74.416C12.3783 74.416 12.6999 74.2129 12.8691 73.8066C13.0553 73.3411 13.1484 72.4102 13.1484 71.0137V62.0127C13.1484 60.6247 13.0807 59.7529 12.9453 59.3975C12.8184 59.0335 12.6745 58.805 12.5137 58.7119C12.3529 58.6188 12.1497 58.5723 11.9043 58.5723L11.2822 58.623C10.9775 58.623 10.8252 58.5003 10.8252 58.2549C10.8252 57.9417 11.0495 57.7852 11.498 57.7852C11.9551 57.7852 12.3275 57.7979 12.6152 57.8232C12.9115 57.8402 13.2077 57.8613 13.5039 57.8867C14.291 57.9544 14.9089 57.9883 15.3574 57.9883C15.8145 57.9883 16.2969 57.9798 16.8047 57.9629C17.3125 57.9375 17.8796 57.9121 18.5059 57.8867C20.1562 57.819 21.2988 57.7852 21.9336 57.7852C22.5768 57.7852 22.9323 57.8232 23 57.8994C23.0762 57.9756 23.1143 58.0814 23.1143 58.2168C23.1143 58.3438 23.11 58.4665 23.1016 58.585C23.1016 58.7035 23.0973 58.8346 23.0889 58.9785C23.0804 59.1732 23.055 59.4652 23.0127 59.8545C22.9704 60.2354 22.9196 60.4935 22.8604 60.6289C22.8011 60.7559 22.7165 60.8193 22.6064 60.8193C22.4964 60.8193 22.4202 60.7939 22.3779 60.7432C22.3356 60.6839 22.2764 60.557 22.2002 60.3623C22.1325 60.1592 22.0055 59.9688 21.8193 59.791C21.6416 59.6048 21.3581 59.4525 20.9688 59.334C20.207 59.1055 18.7979 58.9912 16.7412 58.9912H15.6113C15.4082 58.9912 15.277 59.0208 15.2178 59.0801C15.167 59.1393 15.1416 59.2747 15.1416 59.4863V64.8311C16.1488 64.9495 16.9824 65.0088 17.6426 65.0088C18.3112 65.0088 18.7852 65.0046 19.0645 64.9961C19.3522 64.9876 19.5892 64.9622 19.7754 64.9199C20.1055 64.8607 20.3424 64.7126 20.4863 64.4756C20.7741 64.027 21.0068 63.8027 21.1846 63.8027C21.4131 63.8027 21.5273 63.9212 21.5273 64.1582L21.083 65.9609L21.1338 66.9258C21.1338 67.5352 20.9899 67.8398 20.7021 67.8398C20.4567 67.8398 20.334 67.679 20.334 67.3574C20.334 67.0273 20.3128 66.7819 20.2705 66.6211C20.2367 66.4603 20.1309 66.3333 19.9531 66.2402C19.6823 66.1048 19.0221 66.0371 17.9727 66.0371C16.9232 66.0371 15.9795 66.0837 15.1416 66.1768V69.1855C15.1416 71.056 15.1839 72.6006 15.2686 73.8193C15.9541 73.9717 16.6989 74.0479 17.5029 74.0479C18.307 74.0479 18.9925 74.0267 19.5596 73.9844C20.1351 73.9421 20.6302 73.8574 21.0449 73.7305C21.8659 73.485 22.471 73.0153 22.8604 72.3213C23.0296 72.0166 23.1989 71.8643 23.3682 71.8643C23.5374 71.8643 23.6221 71.987 23.6221 72.2324C23.6221 72.334 23.5924 72.4652 23.5332 72.626C23.4655 72.846 23.3682 73.1761 23.2412 73.6162C23.1143 74.0479 23.0169 74.361 22.9492 74.5557C22.8815 74.7503 22.8053 74.8984 22.7207 75C22.5938 75.1693 22.3441 75.2539 21.9717 75.2539C21.5993 75.2539 21.2396 75.2497 20.8926 75.2412C20.5456 75.2412 20.1816 75.237 19.8008 75.2285C19.3607 75.2116 18.6794 75.1777 17.7568 75.127C15.4548 75.0169 14.1048 74.9788 13.707 75.0127C13.3092 75.0465 13.0088 75.0719 12.8057 75.0889C12.6025 75.1143 12.4036 75.1354 12.209 75.1523C12.0143 75.1777 11.7858 75.1904 11.5234 75.1904ZM26.3389 75.1904C25.7887 75.1904 25.5137 75.0339 25.5137 74.7207C25.5137 74.4753 25.666 74.3525 25.9707 74.3525L26.5928 74.416C27.1006 74.416 27.4434 74.1325 27.6211 73.5654C27.765 73.083 27.8369 72.2197 27.8369 70.9756V62.0127C27.8369 60.7686 27.7777 59.9561 27.6592 59.5752C27.5407 59.1859 27.3968 58.9235 27.2275 58.7881C27.0667 58.6442 26.8551 58.5723 26.5928 58.5723L25.9707 58.623C25.666 58.623 25.5137 58.5003 25.5137 58.2549C25.5137 57.9417 25.7464 57.7852 26.2119 57.7852C26.6774 57.7852 27.0837 57.819 27.4307 57.8867C27.7777 57.9544 28.1204 57.9883 28.459 57.9883C29.3561 57.9883 30.1009 57.946 30.6934 57.8613C31.5905 57.7344 32.6188 57.6709 33.7783 57.6709C34.9463 57.6709 36.1058 57.8783 37.2568 58.293C38.4163 58.7077 39.4108 59.2959 40.2402 60.0576C42.0091 61.6742 42.8936 63.7985 42.8936 66.4307C42.8936 68.9274 42.026 71.0052 40.291 72.6641C38.4967 74.3906 36.1439 75.2539 33.2324 75.2539C32.5299 75.2539 31.8486 75.2243 31.1885 75.165C29.9613 75.055 29.0726 75 28.5225 75L26.3389 75.1904ZM29.8301 69.1475C29.8301 70.654 29.8682 72.0547 29.9443 73.3496C31.07 73.9336 32.3353 74.2256 33.7402 74.2256C34.7643 74.2256 35.8265 73.9844 36.9268 73.502C38.6702 72.7402 39.8086 71.3776 40.3418 69.4141C40.5365 68.7201 40.6338 67.8229 40.6338 66.7227C40.6338 65.6139 40.4434 64.5433 40.0625 63.5107C39.6901 62.4697 39.1654 61.5938 38.4883 60.8828C37.1087 59.4186 35.251 58.6865 32.915 58.6865C31.2477 58.6865 30.2913 58.9066 30.0459 59.3467C29.9189 59.5837 29.8512 59.8545 29.8428 60.1592C29.8343 60.4554 29.8301 60.7474 29.8301 61.0352V69.1475ZM46.0293 75.1904C45.4792 75.1904 45.2041 75.0339 45.2041 74.7207C45.2041 74.4753 45.3564 74.3525 45.6611 74.3525L46.2832 74.416C46.7402 74.416 47.0576 74.196 47.2354 73.7559C47.43 73.265 47.5273 72.3382 47.5273 70.9756L47.4639 62.0127C47.4639 60.6162 47.3877 59.7402 47.2354 59.3848C47.0915 59.0208 46.9391 58.7965 46.7783 58.7119C46.626 58.6188 46.4398 58.5723 46.2197 58.5723L45.5977 58.623C45.293 58.623 45.1406 58.5003 45.1406 58.2549C45.1406 57.9417 45.3734 57.7852 45.8389 57.7852C46.3044 57.7852 46.7445 57.819 47.1592 57.8867C47.5824 57.9544 48.0225 57.9883 48.4795 57.9883C48.9365 57.9883 49.3724 57.9544 49.7871 57.8867C50.2018 57.819 50.6377 57.7852 51.0947 57.7852C51.5602 57.7852 51.793 57.9417 51.793 58.2549C51.793 58.5003 51.6406 58.623 51.3359 58.623L50.7266 58.5723C50.2695 58.5723 49.9521 58.7923 49.7744 59.2324C49.5798 59.7233 49.4824 60.6501 49.4824 62.0127L49.5459 70.9756C49.5459 72.3382 49.6263 73.2057 49.7871 73.5781C49.9564 73.9505 50.1257 74.1833 50.2949 74.2764C50.4642 74.3695 50.6589 74.416 50.8789 74.416L51.4883 74.3525C51.793 74.3525 51.9453 74.4753 51.9453 74.7207C51.9453 75.0339 51.6745 75.1904 51.1328 75.1904C50.8535 75.1904 50.5573 75.165 50.2441 75.1143C49.1862 74.945 48.2848 74.9154 47.54 75.0254C46.8037 75.1354 46.3001 75.1904 46.0293 75.1904ZM57.9883 75.1904C57.4382 75.1904 57.1631 75.0339 57.1631 74.7207C57.1631 74.4753 57.3154 74.3525 57.6201 74.3525L58.2422 74.416C58.75 74.416 59.0885 74.1325 59.2578 73.5654C59.4102 73.083 59.4863 72.2197 59.4863 70.9756V59.1055H59.1436C57.6624 59.1055 56.4818 59.2578 55.6016 59.5625C54.9922 59.7826 54.5775 60.1592 54.3574 60.6924C54.1966 61.0817 54.0273 61.2764 53.8496 61.2764C53.6042 61.2764 53.4814 61.1325 53.4814 60.8447C53.4814 60.7601 53.4984 60.6628 53.5322 60.5527C53.5745 60.4427 53.6211 60.3115 53.6719 60.1592C53.8073 59.7529 53.8877 59.3298 53.9131 58.8896C53.9385 58.4495 53.985 58.1576 54.0527 58.0137C54.1289 57.8613 54.2305 57.7852 54.3574 57.7852C54.4844 57.7852 54.5986 57.7979 54.7002 57.8232C54.8018 57.8402 54.9499 57.8613 55.1445 57.8867C55.6523 57.9544 56.2913 57.9883 57.0615 57.9883H65.1104C65.7367 57.9883 66.1895 57.9544 66.4688 57.8867C66.7565 57.819 66.9639 57.7852 67.0908 57.7852C67.3701 57.7852 67.5098 57.9163 67.5098 58.1787C67.5098 58.3141 67.4844 58.4749 67.4336 58.6611C67.3066 59.0758 67.222 59.4355 67.1797 59.7402C67.1458 60.0365 67.112 60.2819 67.0781 60.4766C67.0443 60.6628 67.0062 60.8109 66.9639 60.9209C66.8962 61.1071 66.7946 61.2002 66.6592 61.2002C66.5238 61.2002 66.4349 61.1536 66.3926 61.0605C66.3587 60.959 66.3206 60.7686 66.2783 60.4893C66.236 60.21 66.1641 59.9814 66.0625 59.8037C65.9609 59.626 65.8255 59.4863 65.6562 59.3848C65.36 59.1986 64.8776 59.1055 64.209 59.1055H61.4795V70.9756C61.4795 72.2536 61.5345 73.0788 61.6445 73.4512C61.763 73.8151 61.9027 74.069 62.0635 74.2129C62.2327 74.3483 62.4528 74.416 62.7236 74.416L63.333 74.3525C63.6377 74.3525 63.79 74.4753 63.79 74.7207C63.79 75.0339 63.5192 75.1904 62.9775 75.1904C62.6982 75.1904 62.402 75.165 62.0889 75.1143C61.0732 74.9535 60.2015 74.9238 59.4736 75.0254C58.7542 75.1354 58.2591 75.1904 57.9883 75.1904Z" fill="#E1C117"/>
<path d="M15 41.4524L47.7475 24L15 6.54757V41.4524Z" stroke="#E1C117" stroke-width="4"/>
<path d="M34.6667 24L21.6667 18.3314V29.6685L34.6667 24Z" fill="#E1C117"/>
</svg>
