<svg width="87" height="88" viewBox="0 0 87 88" fill="none" xmlns="http://www.w3.org/2000/svg">
<path d="M11.7266 75.1904C11.1764 75.1904 10.9014 75.0339 10.9014 74.7207C10.9014 74.4753 11.0537 74.3525 11.3584 74.3525L11.9805 74.416C12.4883 74.416 12.8268 74.1325 12.9961 73.5654C13.1484 73.083 13.2246 72.2197 13.2246 70.9756V62.0381C13.2246 60.7855 13.1654 59.973 13.0469 59.6006C12.9284 59.2197 12.7845 58.9616 12.6152 58.8262C12.4544 58.6823 12.2428 58.6104 11.9805 58.6104L11.3584 58.6738C11.0537 58.6738 10.9014 58.5469 10.9014 58.293C10.9014 57.9629 11.1764 57.7979 11.7266 57.7979L13.3896 57.9883C13.7451 57.9883 14.0625 57.9629 14.3418 57.9121L26.0342 71.5088V62.0127C26.0342 60.777 25.9665 59.9645 25.8311 59.5752C25.7041 59.1859 25.556 58.9235 25.3867 58.7881C25.2174 58.6442 24.9974 58.5723 24.7266 58.5723L24.1045 58.623C23.7998 58.623 23.6475 58.5003 23.6475 58.2549C23.6475 57.9417 23.9225 57.7852 24.4727 57.7852C24.6842 57.7852 24.9678 57.8148 25.3232 57.874C25.7718 57.9502 26.1781 57.9883 26.542 57.9883C26.9059 57.9883 27.2614 57.9544 27.6084 57.8867C27.9554 57.819 28.3617 57.7852 28.8271 57.7852C29.2926 57.7852 29.5254 57.9417 29.5254 58.2549C29.5254 58.5003 29.373 58.623 29.0684 58.623L28.4463 58.5723C27.93 58.5723 27.5872 58.8558 27.418 59.4229C27.2741 59.8714 27.2021 60.7347 27.2021 62.0127V74.835C27.2021 75.1227 27.1768 75.3132 27.126 75.4062C27.0752 75.4993 26.9948 75.5459 26.8848 75.5459C26.7324 75.5459 26.4912 75.3682 26.1611 75.0127L14.4561 61.4541V70.9756C14.4561 72.2536 14.5111 73.0788 14.6211 73.4512C14.7396 73.8151 14.8792 74.069 15.04 74.2129C15.2093 74.3483 15.4294 74.416 15.7002 74.416L16.3096 74.3525C16.6143 74.3525 16.7666 74.4753 16.7666 74.7207C16.7666 75.0339 16.5212 75.1904 16.0303 75.1904C15.5479 75.1904 15.1162 75.1566 14.7354 75.0889C14.363 75.0296 13.999 75 13.6436 75C13.2881 75 12.9368 75.0296 12.5898 75.0889C12.2513 75.1566 11.9635 75.1904 11.7266 75.1904ZM31.2773 75.1904C30.8118 75.1904 30.5791 75.0339 30.5791 74.7207C30.5791 74.4753 30.7314 74.3525 31.0361 74.3525L31.6582 74.416C32.1322 74.416 32.4538 74.2129 32.623 73.8066C32.8092 73.3411 32.9023 72.4102 32.9023 71.0137V62.0127C32.9023 60.6247 32.8346 59.7529 32.6992 59.3975C32.5723 59.0335 32.4284 58.805 32.2676 58.7119C32.1068 58.6188 31.9036 58.5723 31.6582 58.5723L31.0361 58.623C30.7314 58.623 30.5791 58.5003 30.5791 58.2549C30.5791 57.9417 30.8034 57.7852 31.252 57.7852C31.709 57.7852 32.0814 57.7979 32.3691 57.8232C32.6654 57.8402 32.9616 57.8613 33.2578 57.8867C34.0449 57.9544 34.6628 57.9883 35.1113 57.9883C35.5684 57.9883 36.0508 57.9798 36.5586 57.9629C37.0664 57.9375 37.6335 57.9121 38.2598 57.8867C39.9102 57.819 41.0527 57.7852 41.6875 57.7852C42.3307 57.7852 42.6862 57.8232 42.7539 57.8994C42.8301 57.9756 42.8682 58.0814 42.8682 58.2168C42.8682 58.3438 42.8639 58.4665 42.8555 58.585C42.8555 58.7035 42.8512 58.8346 42.8428 58.9785C42.8343 59.1732 42.8089 59.4652 42.7666 59.8545C42.7243 60.2354 42.6735 60.4935 42.6143 60.6289C42.555 60.7559 42.4704 60.8193 42.3604 60.8193C42.2503 60.8193 42.1742 60.7939 42.1318 60.7432C42.0895 60.6839 42.0303 60.557 41.9541 60.3623C41.8864 60.1592 41.7594 59.9688 41.5732 59.791C41.3955 59.6048 41.112 59.4525 40.7227 59.334C39.9609 59.1055 38.5518 58.9912 36.4951 58.9912H35.3652C35.1621 58.9912 35.0309 59.0208 34.9717 59.0801C34.9209 59.1393 34.8955 59.2747 34.8955 59.4863V64.8311C35.9027 64.9495 36.7363 65.0088 37.3965 65.0088C38.0651 65.0088 38.5391 65.0046 38.8184 64.9961C39.1061 64.9876 39.3431 64.9622 39.5293 64.9199C39.8594 64.8607 40.0964 64.7126 40.2402 64.4756C40.528 64.027 40.7607 63.8027 40.9385 63.8027C41.167 63.8027 41.2812 63.9212 41.2812 64.1582L40.8369 65.9609L40.8877 66.9258C40.8877 67.5352 40.7438 67.8398 40.4561 67.8398C40.2106 67.8398 40.0879 67.679 40.0879 67.3574C40.0879 67.0273 40.0667 66.7819 40.0244 66.6211C39.9906 66.4603 39.8848 66.3333 39.707 66.2402C39.4362 66.1048 38.776 66.0371 37.7266 66.0371C36.6771 66.0371 35.7334 66.0837 34.8955 66.1768V69.1855C34.8955 71.056 34.9378 72.6006 35.0225 73.8193C35.708 73.9717 36.4528 74.0479 37.2568 74.0479C38.0609 74.0479 38.7464 74.0267 39.3135 73.9844C39.889 73.9421 40.3841 73.8574 40.7988 73.7305C41.6198 73.485 42.2249 73.0153 42.6143 72.3213C42.7835 72.0166 42.9528 71.8643 43.1221 71.8643C43.2913 71.8643 43.376 71.987 43.376 72.2324C43.376 72.334 43.3464 72.4652 43.2871 72.626C43.2194 72.846 43.1221 73.1761 42.9951 73.6162C42.8682 74.0479 42.7708 74.361 42.7031 74.5557C42.6354 74.7503 42.5592 74.8984 42.4746 75C42.3477 75.1693 42.098 75.2539 41.7256 75.2539C41.3532 75.2539 40.9935 75.2497 40.6465 75.2412C40.2995 75.2412 39.9355 75.237 39.5547 75.2285C39.1146 75.2116 38.4333 75.1777 37.5107 75.127C35.2087 75.0169 33.8587 74.9788 33.4609 75.0127C33.0632 75.0465 32.7627 75.0719 32.5596 75.0889C32.3564 75.1143 32.1576 75.1354 31.9629 75.1523C31.7682 75.1777 31.5397 75.1904 31.2773 75.1904ZM45.6484 75.1904C45.1152 75.1904 44.8486 75.0465 44.8486 74.7588C44.8486 74.4626 45.0137 74.3102 45.3438 74.3018C45.6823 74.2848 45.9743 74.2256 46.2197 74.124C46.4736 74.0225 46.7233 73.8574 46.9688 73.6289C47.3835 73.248 47.9505 72.4652 48.6699 71.2803L51.666 66.2783L48.3018 60.6543C47.8363 59.8503 47.4977 59.3467 47.2861 59.1436C46.9645 58.8304 46.6048 58.6738 46.207 58.6738C45.8092 58.6738 45.6104 58.5257 45.6104 58.2295C45.6104 57.9333 45.8854 57.7852 46.4355 57.7852L48.6572 57.9883C49.0381 57.9883 49.3978 57.9544 49.7363 57.8867C50.0833 57.819 50.3965 57.7852 50.6758 57.7852C51.209 57.7852 51.4756 57.9163 51.4756 58.1787C51.4756 58.3649 51.4036 58.4834 51.2598 58.5342C51.1159 58.585 50.9551 58.623 50.7773 58.6484C50.5996 58.6738 50.4388 58.7077 50.2949 58.75C50.151 58.7923 50.0791 58.8939 50.0791 59.0547C50.0791 59.3678 50.2441 59.8079 50.5742 60.375L52.8721 64.2725L55.1953 60.4131C55.5592 59.8037 55.7412 59.4017 55.7412 59.207C55.7412 58.8177 55.4111 58.623 54.751 58.623C54.4463 58.623 54.2939 58.5003 54.2939 58.2549C54.2939 57.9417 54.569 57.7852 55.1191 57.7852L56.7949 57.9756C57.2435 57.9756 57.6455 57.946 58.001 57.8867C58.3564 57.819 58.6315 57.7852 58.8262 57.7852C59.3594 57.7852 59.626 57.9375 59.626 58.2422C59.626 58.5384 59.4609 58.6865 59.1309 58.6865C58.8092 58.6865 58.5257 58.7204 58.2803 58.7881C58.0433 58.8558 57.8021 58.9954 57.5566 59.207C57.0742 59.6302 56.4902 60.4596 55.8047 61.6953L53.5703 65.4404L57.417 71.9277C58.3564 73.502 59.2705 74.2891 60.1592 74.2891C60.5231 74.2891 60.7051 74.4414 60.7051 74.7461C60.7051 75.0423 60.4385 75.1904 59.9053 75.1904C59.6852 75.1904 59.499 75.1777 59.3467 75.1523C59.1943 75.1354 59.042 75.1185 58.8896 75.1016C58.4326 75.0339 58.0221 75 57.6582 75L55.5381 75.1904C54.988 75.1904 54.7129 75.0339 54.7129 74.7207C54.7129 74.4753 54.8356 74.3525 55.0811 74.3525C55.335 74.3525 55.5169 74.3441 55.627 74.3271C55.7454 74.3018 55.8301 74.2679 55.8809 74.2256C55.9655 74.1663 56.0078 74.0563 56.0078 73.8955C55.9909 73.8701 55.9443 73.7347 55.8682 73.4893C55.8005 73.2354 55.6227 72.8672 55.335 72.3848L52.3643 67.4463L49.3047 72.5625C48.9408 73.1719 48.7588 73.5739 48.7588 73.7686C48.7588 74.1579 49.0889 74.3525 49.749 74.3525C50.0537 74.3525 50.2061 74.4753 50.2061 74.7207C50.2061 75.0339 49.931 75.1904 49.3809 75.1904L47.7051 75C47.2819 75 46.8799 75.0296 46.499 75.0889C46.1182 75.1566 45.8346 75.1904 45.6484 75.1904ZM66.3672 75.1904C65.8171 75.1904 65.542 75.0339 65.542 74.7207C65.542 74.4753 65.6943 74.3525 65.999 74.3525L66.6211 74.416C67.1289 74.416 67.4674 74.1325 67.6367 73.5654C67.7891 73.083 67.8652 72.2197 67.8652 70.9756V59.1055H67.5225C66.0413 59.1055 64.8607 59.2578 63.9805 59.5625C63.3711 59.7826 62.9564 60.1592 62.7363 60.6924C62.5755 61.0817 62.4062 61.2764 62.2285 61.2764C61.9831 61.2764 61.8604 61.1325 61.8604 60.8447C61.8604 60.7601 61.8773 60.6628 61.9111 60.5527C61.9535 60.4427 62 60.3115 62.0508 60.1592C62.1862 59.7529 62.2666 59.3298 62.292 58.8896C62.3174 58.4495 62.3639 58.1576 62.4316 58.0137C62.5078 57.8613 62.6094 57.7852 62.7363 57.7852C62.8633 57.7852 62.9775 57.7979 63.0791 57.8232C63.1807 57.8402 63.3288 57.8613 63.5234 57.8867C64.0312 57.9544 64.6702 57.9883 65.4404 57.9883H73.4893C74.1156 57.9883 74.5684 57.9544 74.8477 57.8867C75.1354 57.819 75.3428 57.7852 75.4697 57.7852C75.749 57.7852 75.8887 57.9163 75.8887 58.1787C75.8887 58.3141 75.8633 58.4749 75.8125 58.6611C75.6855 59.0758 75.6009 59.4355 75.5586 59.7402C75.5247 60.0365 75.4909 60.2819 75.457 60.4766C75.4232 60.6628 75.3851 60.8109 75.3428 60.9209C75.2751 61.1071 75.1735 61.2002 75.0381 61.2002C74.9027 61.2002 74.8138 61.1536 74.7715 61.0605C74.7376 60.959 74.6995 60.7686 74.6572 60.4893C74.6149 60.21 74.543 59.9814 74.4414 59.8037C74.3398 59.626 74.2044 59.4863 74.0352 59.3848C73.7389 59.1986 73.2565 59.1055 72.5879 59.1055H69.8584V70.9756C69.8584 72.2536 69.9134 73.0788 70.0234 73.4512C70.1419 73.8151 70.2816 74.069 70.4424 74.2129C70.6117 74.3483 70.8317 74.416 71.1025 74.416L71.7119 74.3525C72.0166 74.3525 72.1689 74.4753 72.1689 74.7207C72.1689 75.0339 71.8981 75.1904 71.3564 75.1904C71.0771 75.1904 70.7809 75.165 70.4678 75.1143C69.4521 74.9535 68.5804 74.9238 67.8525 75.0254C67.1331 75.1354 66.638 75.1904 66.3672 75.1904Z" fill="#E1C117"/>
<path d="M15 41.4524L47.7475 24L15 6.54757V41.4524Z" stroke="#E1C117" stroke-width="4"/>
<path d="M34.6667 24L21.6667 18.3314V29.6685L34.6667 24Z" fill="#E1C117"/>
</svg>
