<svg width="72" height="88" viewBox="0 0 72 88" fill="none" xmlns="http://www.w3.org/2000/svg">
<path d="M1.68848 75.1904C1.13835 75.1904 0.863281 75.0339 0.863281 74.7207C0.863281 74.4753 1.01562 74.3525 1.32031 74.3525L1.94238 74.416C2.4502 74.416 2.79297 74.1325 2.9707 73.5654C3.11458 73.083 3.18652 72.2197 3.18652 70.9756V62.0127C3.18652 60.7686 3.12728 59.9561 3.00879 59.5752C2.8903 59.1859 2.74642 58.9235 2.57715 58.7881C2.41634 58.6442 2.20475 58.5723 1.94238 58.5723L1.32031 58.623C1.01562 58.623 0.863281 58.5003 0.863281 58.2549C0.863281 57.9417 1.09603 57.7852 1.56152 57.7852C2.02702 57.7852 2.46712 57.819 2.88184 57.8867C3.30501 57.9544 3.77051 57.9883 4.27832 57.9883C4.7946 57.9883 5.2474 57.9544 5.63672 57.8867C6.03451 57.819 6.38151 57.7852 6.67773 57.7852C8.48893 57.7852 9.95312 58.3353 11.0703 59.4355C12.0859 60.4427 12.5938 61.6572 12.5938 63.0791C12.5938 64.391 12.0859 65.5335 11.0703 66.5068C10.0716 67.4548 8.92904 67.9287 7.64258 67.9287C6.65234 67.9287 5.97526 67.734 5.61133 67.3447C5.5013 67.2262 5.44629 67.0993 5.44629 66.9639C5.44629 66.82 5.48438 66.7142 5.56055 66.6465C5.64518 66.5703 5.74674 66.5322 5.86523 66.5322C5.98372 66.5322 6.14876 66.6126 6.36035 66.7734C6.69043 67.0104 7.10091 67.1289 7.5918 67.1289C8.08268 67.1289 8.4974 67.0358 8.83594 66.8496C9.18294 66.6549 9.47493 66.3841 9.71191 66.0371C10.2028 65.3177 10.4482 64.3486 10.4482 63.1299C10.4482 61.7588 10.0674 60.667 9.30566 59.8545C8.56934 59.0674 7.61296 58.6738 6.43652 58.6738C6.00488 58.6738 5.6875 58.7331 5.48438 58.8516C5.28125 58.9701 5.17969 59.1732 5.17969 59.4609V70.9756C5.17969 72.2536 5.2347 73.0788 5.34473 73.4512C5.46322 73.8151 5.60286 74.069 5.76367 74.2129C5.93294 74.3483 6.15299 74.416 6.42383 74.416L7.0332 74.3525C7.33789 74.3525 7.49023 74.4753 7.49023 74.7207C7.49023 75.0339 7.2194 75.1904 6.67773 75.1904C6.39844 75.1904 6.10221 75.165 5.78906 75.1143C4.77344 74.9535 3.90169 74.9238 3.17383 75.0254C2.45443 75.1354 1.95931 75.1904 1.68848 75.1904ZM15.2979 75.1904C14.7477 75.1904 14.4727 75.0339 14.4727 74.7207C14.4727 74.4753 14.625 74.3525 14.9297 74.3525L15.5518 74.416C16.0596 74.416 16.4023 74.1325 16.5801 73.5654C16.724 73.083 16.7959 72.2197 16.7959 70.9756V62.0127C16.7959 60.7686 16.7367 59.9561 16.6182 59.5752C16.4997 59.1859 16.3558 58.9235 16.1865 58.7881C16.0257 58.6442 15.8141 58.5723 15.5518 58.5723L14.9297 58.623C14.625 58.623 14.4727 58.5003 14.4727 58.2549C14.4727 57.9417 14.7054 57.7852 15.1709 57.7852C15.6364 57.7852 16.0765 57.819 16.4912 57.8867C16.9144 57.9544 17.3545 57.9883 17.8115 57.9883C18.2686 57.9883 18.7044 57.9544 19.1191 57.8867C19.5423 57.819 20.0798 57.7852 20.7314 57.7852C21.3916 57.7852 22.0983 57.891 22.8516 58.1025C23.6048 58.3141 24.2396 58.6146 24.7559 59.0039C25.8307 59.8079 26.3682 60.8743 26.3682 62.2031C26.3682 63.6758 25.763 64.9453 24.5527 66.0117C24.1634 66.3503 23.7318 66.638 23.2578 66.875L27.3838 72.8672C27.8493 73.5527 28.3613 73.9674 28.9199 74.1113C29.0807 74.1536 29.2839 74.1875 29.5293 74.2129C29.9609 74.2552 30.1768 74.3991 30.1768 74.6445C30.1768 74.8815 29.944 75 29.4785 75H27.041C26.457 75 25.9281 74.6191 25.4541 73.8574L22.2549 68.7412C21.9671 68.2926 21.6921 67.9753 21.4297 67.7891C21.1673 67.5944 20.7611 67.4971 20.2109 67.4971C19.6693 67.4971 19.1953 67.5098 18.7891 67.5352V70.9756C18.7891 72.2536 18.8441 73.0788 18.9541 73.4512C19.0726 73.8151 19.2122 74.069 19.373 74.2129C19.5423 74.3483 19.7624 74.416 20.0332 74.416L20.6426 74.3525C20.9473 74.3525 21.0996 74.4753 21.0996 74.7207C21.0996 75.0339 20.8288 75.1904 20.2871 75.1904C20.0078 75.1904 19.7116 75.165 19.3984 75.1143C18.3828 74.9535 17.5111 74.9238 16.7832 75.0254C16.0638 75.1354 15.5687 75.1904 15.2979 75.1904ZM18.7891 66.418C19.3392 66.4772 19.8682 66.5068 20.376 66.5068H21.1758C21.9967 66.5068 22.6908 66.2275 23.2578 65.6689C23.918 65.0173 24.248 64.1286 24.248 63.0029C24.248 61.6488 23.8376 60.5781 23.0166 59.791C22.2464 59.0462 21.2562 58.6738 20.0459 58.6738C19.6143 58.6738 19.2969 58.7331 19.0938 58.8516C18.8906 58.9701 18.7891 59.1732 18.7891 59.4609V66.418ZM31.6621 75.1904C31.1966 75.1904 30.9639 75.0339 30.9639 74.7207C30.9639 74.4753 31.1162 74.3525 31.4209 74.3525L32.043 74.416C32.5169 74.416 32.8385 74.2129 33.0078 73.8066C33.194 73.3411 33.2871 72.4102 33.2871 71.0137V62.0127C33.2871 60.6247 33.2194 59.7529 33.084 59.3975C32.957 59.0335 32.8132 58.805 32.6523 58.7119C32.4915 58.6188 32.2884 58.5723 32.043 58.5723L31.4209 58.623C31.1162 58.623 30.9639 58.5003 30.9639 58.2549C30.9639 57.9417 31.1882 57.7852 31.6367 57.7852C32.0938 57.7852 32.4661 57.7979 32.7539 57.8232C33.0501 57.8402 33.3464 57.8613 33.6426 57.8867C34.4297 57.9544 35.0475 57.9883 35.4961 57.9883C35.9531 57.9883 36.4355 57.9798 36.9434 57.9629C37.4512 57.9375 38.0182 57.9121 38.6445 57.8867C40.2949 57.819 41.4375 57.7852 42.0723 57.7852C42.7155 57.7852 43.071 57.8232 43.1387 57.8994C43.2148 57.9756 43.2529 58.0814 43.2529 58.2168C43.2529 58.3438 43.2487 58.4665 43.2402 58.585C43.2402 58.7035 43.236 58.8346 43.2275 58.9785C43.2191 59.1732 43.1937 59.4652 43.1514 59.8545C43.109 60.2354 43.0583 60.4935 42.999 60.6289C42.9398 60.7559 42.8551 60.8193 42.7451 60.8193C42.6351 60.8193 42.5589 60.7939 42.5166 60.7432C42.4743 60.6839 42.415 60.557 42.3389 60.3623C42.2712 60.1592 42.1442 59.9688 41.958 59.791C41.7803 59.6048 41.4967 59.4525 41.1074 59.334C40.3457 59.1055 38.9365 58.9912 36.8799 58.9912H35.75C35.5469 58.9912 35.4157 59.0208 35.3564 59.0801C35.3057 59.1393 35.2803 59.2747 35.2803 59.4863V64.8311C36.2874 64.9495 37.1211 65.0088 37.7812 65.0088C38.4499 65.0088 38.9238 65.0046 39.2031 64.9961C39.4909 64.9876 39.7279 64.9622 39.9141 64.9199C40.2441 64.8607 40.4811 64.7126 40.625 64.4756C40.9128 64.027 41.1455 63.8027 41.3232 63.8027C41.5518 63.8027 41.666 63.9212 41.666 64.1582L41.2217 65.9609L41.2725 66.9258C41.2725 67.5352 41.1286 67.8398 40.8408 67.8398C40.5954 67.8398 40.4727 67.679 40.4727 67.3574C40.4727 67.0273 40.4515 66.7819 40.4092 66.6211C40.3753 66.4603 40.2695 66.3333 40.0918 66.2402C39.821 66.1048 39.1608 66.0371 38.1113 66.0371C37.0618 66.0371 36.1182 66.0837 35.2803 66.1768V69.1855C35.2803 71.056 35.3226 72.6006 35.4072 73.8193C36.0928 73.9717 36.8376 74.0479 37.6416 74.0479C38.4456 74.0479 39.1312 74.0267 39.6982 73.9844C40.2738 73.9421 40.7689 73.8574 41.1836 73.7305C42.0046 73.485 42.6097 73.0153 42.999 72.3213C43.1683 72.0166 43.3376 71.8643 43.5068 71.8643C43.6761 71.8643 43.7607 71.987 43.7607 72.2324C43.7607 72.334 43.7311 72.4652 43.6719 72.626C43.6042 72.846 43.5068 73.1761 43.3799 73.6162C43.2529 74.0479 43.1556 74.361 43.0879 74.5557C43.0202 74.7503 42.944 74.8984 42.8594 75C42.7324 75.1693 42.4827 75.2539 42.1104 75.2539C41.738 75.2539 41.3783 75.2497 41.0312 75.2412C40.6842 75.2412 40.3203 75.237 39.9395 75.2285C39.4993 75.2116 38.818 75.1777 37.8955 75.127C35.5934 75.0169 34.2435 74.9788 33.8457 75.0127C33.4479 75.0465 33.1475 75.0719 32.9443 75.0889C32.7412 75.1143 32.5423 75.1354 32.3477 75.1523C32.153 75.1777 31.9245 75.1904 31.6621 75.1904ZM61.6738 57.7852C62.207 57.7852 62.4736 57.9375 62.4736 58.2422C62.4736 58.5384 62.2959 58.6865 61.9404 58.6865C61.4919 58.6865 61.1745 58.7796 60.9883 58.9658C60.6497 59.2874 60.3366 59.8291 60.0488 60.5908L54.5771 74.8857C54.3656 75.4105 54.1751 75.6729 54.0059 75.6729C53.7858 75.6729 53.5573 75.3724 53.3203 74.7715L47.4424 60.5908C47.1038 59.8206 46.8415 59.334 46.6553 59.1309C46.359 58.8346 46.0163 58.6865 45.627 58.6865C45.2376 58.6865 45.043 58.5342 45.043 58.2295C45.043 58.111 45.1107 58.0094 45.2461 57.9248C45.3815 57.8317 45.5677 57.7852 45.8047 57.7852C46.0417 57.7852 46.2363 57.7979 46.3887 57.8232C46.541 57.8402 46.6934 57.8613 46.8457 57.8867C47.2689 57.9544 47.6751 57.9883 48.0645 57.9883C48.4538 57.9883 48.8643 57.9544 49.2959 57.8867C49.7275 57.819 50.1846 57.7852 50.667 57.7852C51.1494 57.7852 51.3906 57.9248 51.3906 58.2041C51.3906 58.4834 51.2087 58.623 50.8447 58.623C49.9053 58.623 49.4355 58.8812 49.4355 59.3975C49.4355 59.7529 49.6048 60.3327 49.9434 61.1367L54.5391 72.1562L58.5127 61.1748C58.7581 60.4893 58.8809 59.9857 58.8809 59.6641C58.8809 58.9701 58.3561 58.623 57.3066 58.623C56.9427 58.623 56.7607 58.4834 56.7607 58.2041C56.7607 57.9248 57.0358 57.7852 57.5859 57.7852C57.8568 57.7852 58.1615 57.819 58.5 57.8867C58.847 57.9544 59.2702 57.9883 59.7695 57.9883L61.6738 57.7852Z" fill="#E1C117"/>
<path d="M57 41.4524L24.2525 24L57 6.54757V41.4524Z" stroke="#E1C117" stroke-width="4"/>
<path d="M37.3333 24L50.3333 18.3314V29.6685L37.3333 24Z" fill="#E1C117"/>
</svg>
